<svg xmlns="http://www.w3.org/2000/svg" width="506" height="281" viewBox="0 0 506 281" version="1.1">
	<path d="M 228.678 43.454 C 219.421 45.087, 206.855 49.083, 198.500 53.050 C 177.151 63.186, 153.842 85.930, 143.688 106.531 C 138.133 117.803, 134 128.888, 134 132.515 C 134 133.662, 133.447 135.153, 132.772 135.828 C 131.870 136.730, 131.538 143.488, 131.522 161.278 C 131.498 187.463, 131.320 186.248, 138.081 206.048 C 141.689 216.615, 141.751 218.701, 138.501 220.182 C 134.199 222.142, 129.046 219.497, 116.823 209.057 C 105.357 199.263, 82.305 178.244, 69.500 165.907 C 51.856 148.908, 48.878 146.997, 40.054 147.009 C 34.602 147.017, 32.615 147.526, 28.236 150.038 C 25.340 151.698, 21.628 154.912, 19.986 157.178 C 17.457 160.670, 17 162.223, 17 167.334 C 17 173.234, 17.106 173.469, 21.780 177.934 C 26.291 182.244, 54.607 199.548, 109.169 231.340 C 132.449 244.904, 137.248 247.161, 146.798 249.040 C 150.462 249.761, 155.077 251.617, 158.185 253.619 C 161.060 255.471, 165.007 257.327, 166.956 257.743 C 172.798 258.991, 313.719 258.680, 314.983 257.417 C 316.929 255.471, 314.854 252.955, 308.768 249.883 C 300.939 245.931, 291.048 243.468, 276.677 241.891 C 263.783 240.477, 262.901 239.800, 267.587 234.909 C 269.880 232.516, 270.558 232.315, 273.550 233.141 C 275.942 233.802, 278.614 233.646, 282.713 232.607 C 285.896 231.801, 294.350 229.967, 301.500 228.531 C 308.650 227.096, 315.542 225.699, 316.815 225.426 C 318.293 225.109, 319.750 223.543, 320.847 221.092 L 322.566 217.254 328.033 224.242 C 340.391 240.036, 353.822 251.381, 365.854 256.191 C 370.913 258.213, 373.238 258.450, 388.199 258.474 C 405.933 258.502, 408.764 257.846, 405.908 254.374 C 405.133 253.433, 401.599 251.344, 398.053 249.732 C 394.508 248.120, 390.145 245.687, 388.358 244.324 C 384.228 241.174, 379.632 233.838, 378.035 227.846 C 376.340 221.491, 377.041 206.401, 379.212 202.500 C 380.130 200.850, 381.630 197.818, 382.545 195.761 C 384.619 191.099, 393.682 182.614, 401.674 177.854 C 409.657 173.098, 417.429 170.262, 426.209 168.900 C 432.704 167.892, 433.494 167.956, 434.684 169.583 C 435.922 171.275, 436.156 171.225, 438.803 168.689 C 440.554 167.011, 442.720 166, 444.561 166 C 446.185 166, 448.948 165.588, 450.702 165.086 C 452.942 164.443, 454.055 164.517, 454.445 165.336 C 454.854 166.193, 455.155 166.167, 455.587 165.238 C 455.910 164.544, 458.053 162.684, 460.349 161.104 C 469.677 154.686, 484.301 136.244, 485.614 129.242 C 486.652 123.709, 484.534 118.870, 478.251 112.423 C 468.489 102.405, 445.019 80.721, 439.370 76.500 C 432.484 71.355, 423.063 67.368, 414.590 66.014 C 406.782 64.767, 404.340 63.491, 403.521 60.229 C 402.754 57.172, 396.841 54.620, 392.440 55.445 C 386.256 56.605, 381.975 61.589, 380.590 69.242 C 379.688 74.224, 377.762 74.622, 361.514 73.183 C 345 71.721, 340.700 70.356, 315.851 58.690 C 303.166 52.734, 288.981 47.464, 278.759 44.911 C 267.952 42.211, 240.286 41.406, 228.678 43.454 M 223 142.472 C 223 143.405, 225.104 144.550, 228.750 145.601 C 240.132 148.880, 252.614 156.242, 260 164.030 C 264.912 169.209, 272.975 183.537, 273.042 187.204 C 273.065 188.467, 273.946 191.075, 275 193 C 276.782 196.256, 276.917 196.326, 276.934 194 C 277.083 172.615, 246.891 141, 226.318 141 C 224.063 141, 223 141.472, 223 142.472 M 453.079 168.583 C 453.127 169.748, 453.364 169.985, 453.683 169.188 C 453.972 168.466, 453.936 167.603, 453.604 167.271 C 453.272 166.939, 453.036 167.529, 453.079 168.583 M 434.119 174.315 C 432.568 178.216, 432.720 178.844, 434.575 176.197 C 435.441 174.960, 435.944 173.398, 435.694 172.724 C 435.443 172.051, 434.735 172.767, 434.119 174.315 M 389.938 195.583 C 383.150 204.773, 381.496 209.319, 381.604 218.500 C 381.663 223.617, 382.311 227.941, 383.401 230.500 C 386.216 237.106, 392.113 245.505, 394.840 246.792 C 397.504 248.050, 424.413 248.546, 427.418 247.393 C 429.540 246.579, 429.421 243.691, 427.180 241.663 C 426.179 240.757, 422.878 239.162, 419.843 238.118 C 405.886 233.316, 402.853 229.615, 401.171 215.326 C 400.387 208.668, 400.319 203.419, 400.960 199.046 C 402.042 191.662, 401.298 190, 396.909 190 C 394.613 190, 393.266 191.080, 389.938 195.583 M 313.457 200.500 C 313.870 201.600, 314.577 203.728, 315.028 205.229 C 316.088 208.755, 320.158 216, 321.080 216 C 322.025 216, 315.519 201.091, 313.939 199.636 C 312.981 198.753, 312.873 198.946, 313.457 200.500 M 273.158 222 C 273.158 223.375, 273.385 223.938, 273.662 223.250 C 273.940 222.563, 273.940 221.438, 273.662 220.750 C 273.385 220.063, 273.158 220.625, 273.158 222" stroke="none" fill="black" fill-rule="evenodd"/>
</svg>